<?xml version="1.0" standalone="no"?>
<!DOCTYPE svg PUBLIC "-//W3C//DTD SVG 20010904//EN"
 "http://www.w3.org/TR/2001/REC-SVG-20010904/DTD/svg10.dtd">
<svg version="1.0" xmlns="http://www.w3.org/2000/svg"
 width="1080.000000pt" height="1080.000000pt" viewBox="0 0 1080.000000 1080.000000"
 preserveAspectRatio="xMidYMid meet">
<metadata>
Created by potrace 1.14, written by Peter Selinger 2001-2017
</metadata>
<g transform="translate(0.000000,1080.000000) scale(0.100000,-0.100000)"
fill="#000000" stroke="none">
<path d="M5128 10795 c-1 -1 -46 -6 -98 -9 -148 -10 -276 -22 -370 -37 -36 -6
-83 -13 -105 -16 -50 -6 -328 -61 -375 -73 -19 -5 -46 -11 -60 -13 -103 -18
-495 -143 -690 -219 -236 -93 -609 -273 -740 -357 -44 -28 -64 -40 -95 -57
-63 -34 -294 -190 -400 -269 -256 -191 -364 -284 -605 -525 -220 -219 -304
-314 -479 -540 -28 -36 -55 -70 -61 -77 -5 -7 -10 -16 -10 -22 0 -5 -4 -11 -8
-13 -21 -8 -231 -331 -337 -517 -61 -108 -194 -374 -235 -471 -17 -41 -38 -88
-45 -105 -63 -141 -211 -579 -240 -708 -2 -12 -9 -42 -16 -67 -6 -25 -12 -49
-13 -55 -2 -5 -6 -21 -9 -35 -4 -14 -9 -36 -11 -50 -3 -14 -16 -81 -29 -150
-14 -69 -28 -143 -31 -165 -11 -76 -25 -180 -31 -240 -4 -33 -8 -71 -11 -85
-11 -73 -19 -276 -19 -530 1 -335 8 -446 51 -765 69 -510 245 -1082 487 -1585
107 -222 324 -592 429 -732 7 -9 20 -26 28 -38 27 -40 143 -194 172 -230 16
-19 32 -39 36 -45 13 -17 187 -218 221 -255 76 -83 195 -202 291 -290 56 -52
108 -100 114 -105 51 -48 225 -189 336 -271 456 -341 959 -605 1501 -789 92
-30 175 -58 185 -60 11 -2 60 -16 109 -30 93 -27 115 -33 150 -40 11 -3 70
-16 130 -29 106 -24 357 -68 460 -81 28 -3 64 -8 80 -10 267 -36 846 -41 1139
-10 115 12 133 14 171 20 22 3 54 7 70 10 17 3 48 7 70 10 34 5 155 27 230 41
35 7 141 30 170 37 11 3 52 13 90 22 39 9 91 23 116 31 25 8 54 16 65 18 10 2
78 23 149 47 72 24 132 44 135 44 3 1 12 4 20 8 8 3 49 18 90 33 225 82 573
246 785 369 112 65 264 159 282 175 7 5 16 10 22 10 5 0 11 3 13 8 2 4 35 28
73 55 117 80 279 199 300 221 6 6 46 40 90 76 206 168 479 438 651 645 32 39
61 72 65 75 15 12 238 314 299 405 351 523 608 1102 759 1710 17 66 32 131 35
145 3 14 14 71 25 127 23 114 57 328 66 418 4 33 8 76 11 95 25 215 25 901 -1
1039 -1 9 -6 48 -10 86 -12 122 -11 119 -49 335 -28 159 -33 184 -40 208 -3 9
-7 28 -10 42 -20 116 -140 534 -166 582 -6 10 -10 23 -10 29 0 15 -122 321
-166 416 -44 96 -194 394 -204 408 -4 6 -20 33 -35 60 -123 223 -387 601 -560
800 -15 17 -45 52 -68 78 -124 144 -354 374 -493 494 -27 23 -62 54 -79 68
-16 15 -91 74 -165 131 -74 57 -141 109 -148 115 -7 5 -67 48 -135 93 -312
213 -672 404 -1017 544 -231 93 -581 205 -740 238 -13 3 -60 14 -105 24 -93
22 -235 49 -285 56 -19 2 -60 9 -90 14 -30 5 -79 12 -109 15 -30 4 -62 8 -72
10 -10 2 -58 7 -106 10 -48 4 -101 9 -118 12 -34 5 -661 13 -667 8z"/>
</g>
</svg>
